<svg xmlns="http://www.w3.org/2000/svg"
     viewBox="0 0 16 16">
  <path d="M0 3
           a 3 3, 0, 0, 1, 3 -3
           h 2
           l 3 3
           h -3
           a 2 2, 0, 0, 0, -2 2
           v 6
           a 2 2, 0, 0, 0, 2 2
           h 1
           l 3 3
           h -6
           a 3 3, 0, 0, 1, -3 -3
           Z"
        fill="#1B4869" />
  <path d="M16 16
           h -4
           l -9 -9
           h 6
           a 2 2, 0, 0, 0, 2 -2
           a 2 2, 0, 0, 0, -2 -2
           h -1
           l -3 -3
           h 6
           a 3 3, 0, 0, 1, 3 3
           v 4
           a 3 3, 0, 0, 1, -3 3
           h -1
           Z"
        fill="#F24738" />
</svg>
