<svg xmlns="http://www.w3.org/2000/svg"
     viewBox="0 0 16 16">
  <path d="M0 3
           a3 3 0 0 1 3-3
           h2
           l3 3
           h-3
           a2 2 0 0 0-2 2
           v6
           a2 2 0 0 0 2 2
           h1
           l3 3
           h-6
           a3 3 0 0 1-3-3
           Z"
        fill="#1B4869" />
  <path d="M16 16
           h-4
           l-9-9
           h6
           a2 2 0 0 0 0-4
           h-1
           l-3-3
           h6
           a3 3 0 0 1 3 3
           v4
           a3 3 0 0 1-3 3
           h-1
           Z"
        fill="#F24738" />
</svg>
